<?xml version="1.0" encoding="UTF-8"?>
<!DOCTYPE svg PUBLIC "-//W3C//DTD SVG 1.1//EN" "http://www.w3.org/Graphics/SVG/1.1/DTD/svg11.dtd">
<svg xmlns="http://www.w3.org/2000/svg" version="1.1" width="300px" height="101px" style="shape-rendering:geometricPrecision; text-rendering:geometricPrecision; image-rendering:optimizeQuality; fill-rule:evenodd; clip-rule:evenodd" xmlns:xlink="http://www.w3.org/1999/xlink">
<g><path style="opacity:0.725" fill="#000000" d="M 188.5,8.5 C 192.167,8.5 195.833,8.5 199.5,8.5C 199.333,26.1698 199.5,43.8365 200,61.5C 201.39,64.5534 203.723,66.5534 207,67.5C 207.667,70.1667 207.667,72.8333 207,75.5C 199.076,76.9355 193.41,73.9355 190,66.5C 188.754,47.1872 188.254,27.8539 188.5,8.5 Z"/></g>
<g><path style="opacity:0.674" fill="#000000" d="M 83.5,11.5 C 92.6032,10.2216 95.2698,13.7216 91.5,22C 81.7818,23.7862 79.1152,20.2862 83.5,11.5 Z"/></g>
<g><path style="opacity:0.791" fill="#000000" d="M 141.5,30.5 C 141.5,31.5 141.5,32.5 141.5,33.5C 139.978,34.4312 138.645,35.5979 137.5,37C 140.895,45.512 139.562,53.1786 133.5,60C 131.5,61 129.5,62 127.5,63C 130.833,64.3333 134.167,65.6667 137.5,67C 139.469,68.4998 140.802,70.3331 141.5,72.5C 141.5,75.8333 141.5,79.1667 141.5,82.5C 138.762,88.3848 134.096,91.8848 127.5,93C 118.089,94.8035 109.423,93.1368 101.5,88C 100.328,86.1316 100.495,84.2983 102,82.5C 104,80.5 106,78.5 108,76.5C 113.517,81.3586 119.85,82.6919 127,80.5C 129.147,79.4036 129.647,77.9036 128.5,76C 126.5,75.8333 124.5,75.6667 122.5,75.5C 116.78,76.8992 111.113,76.7325 105.5,75C 100.205,69.7958 100.205,64.6291 105.5,59.5C 97.5248,49.9652 97.5248,40.4652 105.5,31C 112.631,26.3129 120.131,25.4795 128,28.5C 129.975,27.522 131.642,26.1887 133,24.5C 135.702,26.7048 138.536,28.7048 141.5,30.5 Z M 119.5,37.5 C 125.698,39.941 127.531,44.2744 125,50.5C 114.667,54.5 111,51.1667 114,40.5C 115.876,39.3913 117.709,38.3913 119.5,37.5 Z M 116.5,63.5 C 122.824,63.4468 122.991,64.1135 117,65.5C 116.167,65.3333 115.333,65.1667 114.5,65C 115.416,64.7216 116.082,64.2216 116.5,63.5 Z"/></g>
<g><path style="opacity:0.833" fill="#e8935a" d="M 141.5,82.5 C 141.5,79.1667 141.5,75.8333 141.5,72.5C 142.228,70.2654 143.561,68.4321 145.5,67C 148.833,65.6667 152.167,64.3333 155.5,63C 144.324,57.486 140.991,48.8193 145.5,37C 144.295,35.6244 142.962,34.4577 141.5,33.5C 141.5,32.5 141.5,31.5 141.5,30.5C 144.175,28.4974 146.842,26.4974 149.5,24.5C 151.16,25.7866 152.826,27.1199 154.5,28.5C 164.948,24.8216 173.781,27.1549 181,35.5C 185.352,44.7393 183.852,52.7393 176.5,59.5C 182.711,64.2733 183.045,69.44 177.5,75C 172.062,76.7018 166.562,76.8685 161,75.5C 158.207,75.3047 155.707,75.9713 153.5,77.5C 155.424,80.9439 158.424,82.2773 162.5,81.5C 167.508,81.1303 172.174,79.9636 176.5,78C 180.035,80.9162 181.701,84.4162 181.5,88.5C 170.44,94.5145 159.107,95.0145 147.5,90C 144.882,87.8943 142.882,85.3943 141.5,82.5 Z M 160.5,38.5 C 169.85,38.3654 172.517,42.532 168.5,51C 161.77,54.3019 157.77,52.3019 156.5,45C 157.219,42.3829 158.553,40.2162 160.5,38.5 Z M 160.5,64.5 C 163.178,63.0905 165.844,63.2572 168.5,65C 165.808,65.4298 163.141,65.2631 160.5,64.5 Z"/></g>
<g><path style="opacity:0.733" fill="#000000" d="M 281.5,25.5 C 285.013,25.3075 288.346,25.9741 291.5,27.5C 291.034,31.0713 289.534,34.0713 287,36.5C 280.469,33.7582 275.802,35.7582 273,42.5C 272.5,53.1615 272.333,63.8281 272.5,74.5C 269.167,74.5 265.833,74.5 262.5,74.5C 261.976,58.5049 261.643,42.5049 261.5,26.5C 264.85,26.335 268.183,26.5017 271.5,27C 272.047,27.9246 272.713,28.7579 273.5,29.5C 275.991,27.5877 278.658,26.2544 281.5,25.5 Z"/></g>
<g><path style="opacity:0.76" fill="#000000" d="M 226.5,26.5 C 246.53,23.8674 255.863,32.5341 254.5,52.5C 243.5,52.5 232.5,52.5 221.5,52.5C 225.104,67.1266 233.438,70.4599 246.5,62.5C 248.522,64.5313 250.189,66.8646 251.5,69.5C 250.636,71.1965 249.303,72.3632 247.5,73C 219.435,79.271 207.935,68.1043 213,39.5C 216.101,33.5629 220.601,29.2296 226.5,26.5 Z M 230.5,35.5 C 238.203,34.1426 242.869,37.1426 244.5,44.5C 237.137,44.8306 229.803,44.4973 222.5,43.5C 224.242,39.7581 226.908,37.0914 230.5,35.5 Z"/></g>
<g><path style="opacity:0.747" fill="#000000" d="M 84.5,27.5 C 87.1194,27.2317 89.6194,27.565 92,28.5C 92.6667,44.1667 92.6667,59.8333 92,75.5C 89,76.8333 86,76.8333 83,75.5C 82.7318,62.813 82.2318,50.1464 81.5,37.5C 79.5328,37.7394 77.6995,37.4061 76,36.5C 75.5026,33.854 75.3359,31.1873 75.5,28.5C 78.7131,28.81 81.7131,28.4767 84.5,27.5 Z"/></g>
<g><path style="opacity:0.768" fill="#000000" d="M 38.5,28.5 C 40.288,28.2148 41.9547,28.5481 43.5,29.5C 47.0813,38.3249 50.9147,46.9915 55,55.5C 58.1476,46.5919 60.9809,37.5919 63.5,28.5C 67.226,28.1774 70.8927,28.5108 74.5,29.5C 68.7884,44.2686 63.6217,59.2686 59,74.5C 57.5993,76.1922 55.7659,76.8588 53.5,76.5C 49.953,67.3368 45.953,58.3368 41.5,49.5C 37.3722,57.9662 33.5388,66.6329 30,75.5C 28.3005,76.4061 26.4672,76.7394 24.5,76.5C 20.0837,60.8276 14.7503,45.4943 8.5,30.5C 12.3803,29.2052 16.2136,29.2052 20,30.5C 22.3333,38.1667 24.6667,45.8333 27,53.5C 27.6667,54.1667 28.3333,54.8333 29,55.5C 32.1912,46.463 35.3579,37.463 38.5,28.5 Z"/></g>
</svg>
