<?xml version="1.0" encoding="UTF-8"?>
<!DOCTYPE svg PUBLIC "-//W3C//DTD SVG 1.1//EN" "http://www.w3.org/Graphics/SVG/1.1/DTD/svg11.dtd">
<svg xmlns="http://www.w3.org/2000/svg" version="1.1" width="192px" height="192px" style="vertical-align:middle;" style="shape-rendering:geometricPrecision; text-rendering:geometricPrecision; image-rendering:optimizeQuality; fill-rule:evenodd; clip-rule:evenodd" xmlns:xlink="http://www.w3.org/1999/xlink">
<g><path style="opacity:0.896" fill="#000000" d="M 95.5,122.5 C 95.5,126.833 95.5,131.167 95.5,135.5C 90.3911,147.93 81.0577,155.43 67.5,158C 49.2493,161.792 32.2493,158.792 16.5,149C 14.0216,147.062 13.8549,144.895 16,142.5C 20.0099,137.659 24.1766,132.992 28.5,128.5C 39.1333,138.364 51.4667,141.197 65.5,137C 72.4777,134.979 74.1443,130.979 70.5,125C 68.6079,124.027 66.6079,123.36 64.5,123C 53.8583,123.73 43.1916,124.063 32.5,124C 17.7717,120.71 13.605,112.21 20,98.5C 22.2198,95.979 24.7198,93.8123 27.5,92C 15.1113,83.8702 10.278,72.3702 13,57.5C 18.5453,38.709 31.212,29.3756 51,29.5C 57.4989,29.3662 63.6655,30.6995 69.5,33.5C 72.688,31.1457 75.3547,28.3124 77.5,25C 78.5,24.3333 79.5,24.3333 80.5,25C 85.4009,29.2788 90.0676,33.7788 94.5,38.5C 91.5081,41.3316 88.5081,44.1649 85.5,47C 92.6907,63.864 90.3574,79.1973 78.5,93C 74.5568,95.8044 70.2234,97.8044 65.5,99C 58.5,99.3333 51.5,99.6667 44.5,100C 37.6643,103.16 37.9977,104.994 45.5,105.5C 57.5599,102.745 69.5599,102.911 81.5,106C 88.8765,109.283 93.5432,114.783 95.5,122.5 Z M 50.5,48.5 C 59.9087,49.408 65.242,54.5747 66.5,64C 64.9886,78.2628 57.3219,83.2628 43.5,79C 36.0088,72.0062 34.5088,63.8395 39,54.5C 42.3077,51.2645 46.1411,49.2645 50.5,48.5 Z"/></g>
<g><path style="opacity:0.951" fill="#e8945a" d="M 95.5,135.5 C 95.5,131.167 95.5,126.833 95.5,122.5C 97.4568,114.783 102.124,109.283 109.5,106C 121.44,102.911 133.44,102.745 145.5,105.5C 153.002,104.994 153.336,103.16 146.5,100C 114.101,103.267 99.2679,88.7667 102,56.5C 102.743,53.18 103.91,50.0133 105.5,47C 102.492,44.1649 99.4919,41.3316 96.5,38.5C 100.932,33.7788 105.599,29.2788 110.5,25C 111.5,24.3333 112.5,24.3333 113.5,25C 115.645,28.3124 118.312,31.1457 121.5,33.5C 135.368,27.8572 149.035,28.3572 162.5,35C 178.654,47.7831 182.487,63.6164 174,82.5C 171.167,86.6667 167.667,90.1667 163.5,93C 174.151,99.6108 176.651,108.444 171,119.5C 168.531,121.652 165.698,123.152 162.5,124C 150.463,124.328 138.463,123.995 126.5,123C 120.176,123.311 117.676,126.477 119,132.5C 124.228,137.186 130.394,139.186 137.5,138.5C 146.981,138.589 155.314,135.589 162.5,129.5C 168.1,134.599 172.767,140.432 176.5,147C 171.1,152.705 164.434,156.372 156.5,158C 142.985,160.508 129.652,159.842 116.5,156C 106.265,152.263 99.2646,145.429 95.5,135.5 Z M 138.5,48.5 C 153.767,51.3627 158.267,60.0293 152,74.5C 146.266,80.5763 139.433,82.0763 131.5,79C 124.41,71.6337 123.244,63.467 128,54.5C 130.975,51.3109 134.475,49.3109 138.5,48.5 Z"/></g>
</svg>
